<svg height="511.99884pt" viewBox="0 0 511.99884 511.99884" width="511.99884pt" xmlns="http://www.w3.org/2000/svg"><path d="m481.476562 162.457031s0-98.519531-102.050781-157.011719c-13.871093-7.949218-28.699219-7.617187-44.503906 3.816407-16.558594 11.980469-19.839844 35.636719-8.339844 52.535156 14.476563 21.277344 27.886719 54.285156 15.3125 95.425781-.242187.242188 139.582031 5.234375 139.582031 5.234375zm0 0" fill="#ffaf50"/><path d="m331.503906 69.609375c17.789063-13.144531 49.289063-29.765625 94.167969-29.035156 55.808594 56 55.804687 121.882812 55.804687 121.882812s-139.824218-4.992187-139.582031-5.234375c11.125-36.402344 1.910157-66.4375-10.390625-87.613281zm0 0" fill="#f49d3d"/><path d="m267.773438 215.542969s25.703124-156.910157 130.570312-135.269531c104.867188 21.640624 159.898438 136.101562 64.1875 233.480468-.832031-5.828125-194.757812-98.210937-194.757812-98.210937zm0 0" fill="#ffc477"/><path d="m162.457031 481.476562s-98.519531 0-157.011719-102.050781c-7.949218-13.871093-7.617187-28.699219 3.816407-44.503906 11.980469-16.558594 35.636719-19.839844 52.535156-8.339844 21.277344 14.476563 54.285156 27.886719 95.425781 15.3125.242188-.242187 5.234375 139.582031 5.234375 139.582031zm0 0" fill="#ffaf50"/><path d="m69.609375 331.503906c-13.144531 17.789063-29.765625 49.285156-29.035156 94.164063 56 55.8125 121.882812 55.808593 121.882812 55.808593s-4.992187-139.824218-5.234375-139.582031c-36.402344 11.125-66.4375 1.910157-87.613281-10.390625zm0 0" fill="#f49d3d"/><path d="m215.542969 267.773438s-156.910157 25.703124-135.269531 130.570312c21.640624 104.867188 136.101562 159.898438 233.480468 64.1875-5.828125-.832031-98.210937-194.757812-98.210937-194.757812zm0 0" fill="#ffaf50"/><path d="m420.019531 197.011719c-60.105469-60.109375-158.757812-58.914063-220.339843 2.671875-61.585938 61.582031-62.78125 160.234375-2.671876 220.339844 60.105469 60.109374 158.757813 58.910156 220.339844-2.671876 61.582032-61.582031 62.78125-160.234374 2.671875-220.339843zm0 0" fill="#ffdaaa"/><path d="m199.683594 199.683594c-61.585938 61.582031-62.78125 160.234375-2.675782 220.339844 60.109376 60.109374 158.761719 58.914062 220.34375-2.671876 21.375-21.371093 35.472657-47.210937 42.261719-74.351562-72.144531 5.265625-143.210937 51.78125-205.703125 4.339844-77.816406-59.074219-54.226562-147.65625-54.226562-147.65625zm0 0" fill="#ffc477"/></svg>
