<svg id="icone_info" data-name="icone info" xmlns="http://www.w3.org/2000/svg" viewBox="0 0 18.837 18.837">
  <defs>
    <style>
      .cls-1 {
        fill: #ca1f3e;
      }
    </style>
  </defs>
  <path id="Tracé_170" data-name="Tracé 170" class="cls-1" d="M192.086,107.2a1.881,1.881,0,0,0,.1.189c.034.052.086.1.121.155a1.551,1.551,0,0,0,.172.155.58.58,0,0,0,.207.1.852.852,0,0,0,.224.069,1.059,1.059,0,0,0,.224.017.982.982,0,0,0,.224-.017.617.617,0,0,0,.189-.069h.017a1.285,1.285,0,0,0,.207-.121,1.114,1.114,0,0,0,.155-.138l.017-.017a.947.947,0,0,0,.121-.155.538.538,0,0,0,.086-.172c0-.017,0-.017.017-.034a1.113,1.113,0,0,0,.069-.224,1.461,1.461,0,0,0,0-.448,1.6,1.6,0,0,0-.069-.224.977.977,0,0,0-.207-.31l-.034-.034a1.506,1.506,0,0,0-.172-.138c-.069-.034-.121-.069-.189-.1a.97.97,0,0,0-.207-.069,1.059,1.059,0,0,0-.224-.017.982.982,0,0,0-.224.017.97.97,0,0,0-.207.069h-.017a1.879,1.879,0,0,0-.189.1,1.507,1.507,0,0,0-.172.138,1.112,1.112,0,0,0-.138.155,1.878,1.878,0,0,0-.1.189.97.97,0,0,0-.069.207,1.059,1.059,0,0,0-.017.224.981.981,0,0,0,.017.224A1.563,1.563,0,0,0,192.086,107.2Z" transform="translate(-183.735 -101.054)"/>
  <path id="Tracé_171" data-name="Tracé 171" class="cls-1" d="M180.7,185.466h-.4v-4.218a.445.445,0,0,0-.448-.448h-1.808a.445.445,0,0,0-.448.448v.93a.445.445,0,0,0,.448.448h.362v2.858h-.362a.445.445,0,0,0-.448.448v.93a.445.445,0,0,0,.448.448H180.7a.445.445,0,0,0,.448-.448v-.93A.46.46,0,0,0,180.7,185.466Z" transform="translate(-169.955 -173.017)"/>
  <path id="Tracé_172" data-name="Tracé 172" class="cls-1" d="M9.418,0a9.418,9.418,0,1,0,9.418,9.418A9.42,9.42,0,0,0,9.418,0Zm0,17.6A8.179,8.179,0,1,1,17.6,9.418,8.186,8.186,0,0,1,9.418,17.6Z"/>
</svg>
