<svg xmlns="http://www.w3.org/2000/svg" viewBox="0 0 1620.65 1620.65"><defs><style>.cls-1{fill:#cac9c9;}.cls-2{fill:#fff;}</style></defs><title>Fichier 17nom_blanc</title><g id="Calque_2" data-name="Calque 2"><g id="COM_BLANC" data-name="COM BLANC"><circle id="cercle" class="cls-1" cx="810.32" cy="810.32" r="810.32"/><path class="cls-2" d="M1131.72,549l-1.14-5.91-1.23-5.88q-1.21-5.88-2.6-11.68c-1.87-7.73-4-15.37-6.52-22.81-4.87-14.89-11.07-29.23-19.23-41.59a96.55,96.55,0,0,0-6.51-8.79,84.57,84.57,0,0,0-7.21-7.74,59.1,59.1,0,0,0-16.42-11.09,49,49,0,0,0-18-4.29,58.41,58.41,0,0,0-18.72,2.39c-12.52,3.48-24.69,10.55-35.74,19.39a189.75,189.75,0,0,0-30.49,30.83,286.45,286.45,0,0,0-24.92,36.82c-3.71,6.48-7.18,13.11-10.47,19.85S926,552.09,923.14,559a415.12,415.12,0,0,0-15,42.59,432,432,0,0,0-10.65,44c-2.76,14.85-4.94,29.81-6.38,44.86s-2.16,30.16-2.17,45.28q-.12,11.34.31,22.69c.28,7.58.72,15.05,1.32,22.75,1.19,15.29,3,30.46,5.17,45.45s5.09,29.77,8.72,44.17c1.81,7.19,3.82,14.29,6,21.25s4.58,13.8,7.22,20.43a185.3,185.3,0,0,0,18.86,36.42c1.83,2.65,3.71,5.22,5.66,7.59s3.95,4.58,5.94,6.65a58.23,58.23,0,0,0,12.12,9.75,30.5,30.5,0,0,0,11.05,4,23.58,23.58,0,0,0,10.52-1,42.89,42.89,0,0,0,12.26-6.54,80.71,80.71,0,0,0,12.65-12.09c2-2.4,4-4.95,6-7.61s3.8-5.47,5.61-8.37c3.6-5.81,6.95-12,10.15-18.4A308.66,308.66,0,0,0,1044.81,882c4.56-14.29,8.6-29,12-44,1.69-7.49,3.26-15,4.66-22.64s2.71-15.25,4-22.93,2.31-15.41,3.31-23.16,1.88-15.53,2.67-23.33c1.66-15.59,3-31.35,3.93-47,.8-15.45,1.23-30.88.14-45.66a140,140,0,0,0-3-21.07,58.43,58.43,0,0,0-2.69-8.88,23.93,23.93,0,0,0-3.13-5.72c-.43-.55-.73-.87-.89-1.05s-.24-.35-.54-.46a3,3,0,0,0-1.58-.14,12.62,12.62,0,0,0-2.93.78,33.2,33.2,0,0,0-7.54,4.33,73.2,73.2,0,0,0-7.77,6.75,141.6,141.6,0,0,0-14.33,17,211.63,211.63,0,0,0-12.51,19.33c-3.83,6.72-7.45,13.63-10.71,20.71s-6.17,14.36-8.8,21.74c-5.15,14.78-8.84,30.22-9,46l-3.49.33a115.72,115.72,0,0,1,.49-24.41,183.53,183.53,0,0,1,4.55-23.88,247.94,247.94,0,0,1,16.73-45.5A227.08,227.08,0,0,1,1020,637.78a154.88,154.88,0,0,1,14.41-19.71,91.14,91.14,0,0,1,8.72-8.75,51.91,51.91,0,0,1,10.38-7.14,25.37,25.37,0,0,1,12.82-3,19.73,19.73,0,0,1,12.29,5.48,36.14,36.14,0,0,1,7.53,10.44,72.39,72.39,0,0,1,4.53,11.62,148.76,148.76,0,0,1,4.83,24,366.84,366.84,0,0,1,2.32,48.42,941.16,941.16,0,0,1-5.71,96.38c-1.85,16-4.16,32-7.16,47.81s-6.6,31.6-11.12,47.12a341,341,0,0,1-16.65,45.61c-6.77,14.74-14.79,29.06-25.15,41.84a114.71,114.71,0,0,1-17.47,17.5,74.66,74.66,0,0,1-21.84,12.24,57.59,57.59,0,0,1-25.13,2.93,63.93,63.93,0,0,1-24-7.83,90.85,90.85,0,0,1-19.78-15.14,134.94,134.94,0,0,1-15.77-19,218.69,218.69,0,0,1-22.78-43.17q-4.55-11.31-8.21-22.91t-6.51-23.4c-3.87-15.71-6.84-31.62-9.13-47.6s-3.86-32.05-4.93-48.14-1.48-32.27-1.08-48.41,1.47-32.27,3.37-48.31,4.52-32,8-47.77a445.72,445.72,0,0,1,30.57-91.81,368.44,368.44,0,0,1,23.14-42.61,297.88,297.88,0,0,1,29.09-38.87A209.82,209.82,0,0,1,985.72,433a142.65,142.65,0,0,1,21.16-12.36,103.91,103.91,0,0,1,23.34-7.9,76.32,76.32,0,0,1,24.78-1,65.49,65.49,0,0,1,23.6,7.78A75.19,75.19,0,0,1,1097.84,435a106,106,0,0,1,14,20.14,153.14,153.14,0,0,1,9.81,22.33,220.11,220.11,0,0,1,6.66,23.36,324.73,324.73,0,0,1,6.87,47.9Z"/><path class="cls-2" d="M857,585.46a131.81,131.81,0,0,0-13,11.67A124.15,124.15,0,0,0,833.13,610c-1.68,2.16-3.13,4.57-4.7,6.77-.77,1.13-1.46,2.34-2.18,3.49s-1.45,2.29-2.09,3.51-1.32,2.4-2,3.56-1.28,2.41-1.91,3.6-1.26,2.39-1.84,3.62l-1.71,3.69c-.29.62-.56,1.23-.86,1.83l-.82,1.87-1.62,3.7c-1,2.51-2,5-2.95,7.54s-1.89,5-2.7,7.63-1.73,5.09-2.44,7.7l-1.14,3.88-1.06,3.9c-.35,1.3-.73,2.58-1.07,3.88l-.95,3.93c-.67,2.59-1.19,5.25-1.75,7.88s-1.06,5.27-1.59,7.9c-1,5.27-1.84,10.59-2.53,15.91l-1,8c-.32,2.66-.55,5.34-.83,8-.83,10.69-1.54,21.36-1.45,32,0,1.34,0,2.67.06,4s0,2.66,0,4c0,2.66.14,5.33.2,8s.29,5.32.42,8,.44,5.29.64,7.94c.46,5.28,1,10.55,1.72,15.78s1.45,10.47,2.41,15.65c.39,2.6.95,5.17,1.46,7.75.27,1.29.49,2.59.8,3.87l.88,3.83c.29,1.28.55,2.57.86,3.85l1,3.8,1,3.81c.37,1.26.71,2.52,1.06,3.78l1,3.79c.36,1.26.77,2.5,1.15,3.75.77,2.5,1.52,5,2.42,7.45s1.66,5,2.65,7.37,1.74,4.92,2.78,7.31a285,285,0,0,0,13.22,28.36l3.86,6.82c1.32,2.26,2.77,4.43,4.07,6.72,2.76,4.46,5.63,8.89,8.73,13.16,1.49,2.19,3.15,4.24,4.71,6.39.79,1.07,1.57,2.15,2.38,3.21l2.51,3.1,2.52,3.12c.84,1,1.75,2,2.63,3,1.81,2,3.44,4.15,5.33,6.07a259.77,259.77,0,0,0,23.58,22.91c2,1.91,4.23,3.65,6.41,5.43l3.27,2.68c1.1.88,2.23,1.72,3.35,2.6l3.37,2.62c1.13.88,2.26,1.77,3.43,2.57,2.34,1.63,4.66,3.37,7,5.08,9.5,6.62,19.46,12.91,29.75,19.44l-1,3.36a314,314,0,0,1-33.61-11.63,266.84,266.84,0,0,1-31.83-16l-3.82-2.33c-1.27-.78-2.55-1.53-3.77-2.39l-7.41-5-7.19-5.3c-2.39-1.78-4.66-3.72-7-5.57a238.5,238.5,0,0,1-25.77-24.79,229.39,229.39,0,0,1-21.72-28.42,255.2,255.2,0,0,1-17.23-31.35,282.67,282.67,0,0,1-21.29-68.09,316,316,0,0,1-.38-106.65,276.48,276.48,0,0,1,8.13-34.76,255.89,255.89,0,0,1,12.67-33.4,196.17,196.17,0,0,1,17.77-31.05,145.69,145.69,0,0,1,24-26.62,111.89,111.89,0,0,1,14.5-10.62l3.89-2.27c1.29-.77,2.67-1.37,4-2.07,2.65-1.42,5.49-2.45,8.24-3.64Z"/><path class="cls-2" d="M753.9,656.46a100.4,100.4,0,0,0-9.68,9.22,94.88,94.88,0,0,0-7.93,10c-1.23,1.67-2.28,3.53-3.42,5.23-.56.86-1.06,1.79-1.59,2.68s-1,1.75-1.51,2.7c-.93,1.86-1.95,3.6-2.82,5.48-.44.93-.91,1.82-1.32,2.76l-1.23,2.82c-.83,1.85-1.57,3.78-2.36,5.64s-1.43,3.82-2.1,5.74c-.33,1-.62,1.95-1,2.9s-.68,1.91-1,2.89c-.6,2-1.23,3.86-1.74,5.84l-.8,2.93c-.25,1-.47,2-.74,3s-.52,2-.76,2.94l-.67,3c-.92,3.94-1.57,8-2.33,11.93s-1.28,8-1.75,12l-.7,6c-.22,2-.37,4-.56,6-.55,8-1,16.08-.88,24.11a281.47,281.47,0,0,0,4.32,47.54,244.38,244.38,0,0,0,12.66,45.27,217.55,217.55,0,0,0,9.72,21.33l2.83,5.15c1,1.7,2,3.34,3,5.06,2,3.38,4.12,6.73,6.4,10,1.09,1.67,2.33,3.21,3.47,4.85l1.75,2.44,1.84,2.37,1.86,2.38c.62.8,1.29,1.54,1.94,2.31,1.34,1.5,2.54,3.17,3.93,4.65a203.1,203.1,0,0,0,17.45,17.67c1.52,1.48,3.14,2.84,4.75,4.23l2.44,2.09,2.49,2c1.68,1.34,3.33,2.79,5.07,4.08s3.48,2.65,5.23,4c7.1,5.23,14.56,10.26,22.3,15.55l-.84,2.88a240.57,240.57,0,0,1-25.62-8.82,201.75,201.75,0,0,1-24.29-12.17c-1.94-1.2-3.91-2.32-5.79-3.59l-5.65-3.8-5.49-4.05c-1.82-1.35-3.56-2.83-5.34-4.24A179.89,179.89,0,0,1,698.13,897a215.67,215.67,0,0,1-16.25-51.92,240.12,240.12,0,0,1-3.25-54.27,225.45,225.45,0,0,1,9.21-53.55,195.66,195.66,0,0,1,9.67-25.46,148.91,148.91,0,0,1,13.58-23.66,110.67,110.67,0,0,1,18.32-20.29,84.36,84.36,0,0,1,11.07-8.09,78.69,78.69,0,0,1,12.32-6.07Z"/><path class="cls-2" d="M667.59,730.42a99.12,99.12,0,0,0-7.25,7.92c-1.07,1.4-2.16,2.66-3.12,4.1-.49.71-1,1.38-1.47,2.06l-1.4,2.1c-.47.68-.9,1.42-1.34,2.13s-.88,1.39-1.3,2.11c-.83,1.45-1.68,2.82-2.43,4.31q-2.37,4.3-4.38,8.73l-2,4.41c-.61,1.51-1.27,2.94-1.82,4.47-1.13,3-2.33,5.92-3.29,9-.54,1.48-.93,3-1.45,4.52s-.92,3-1.38,4.5-.81,3-1.22,4.53-.74,3-1.12,4.53c-5.65,24.14-6.89,48.23-2.28,69.49A104.08,104.08,0,0,0,641.8,899.2,114.26,114.26,0,0,0,663,925.55c.55.51,1.07,1.06,1.64,1.55s1.14,1,1.7,1.52c1.13,1,2.25,2.08,3.47,3s2.38,2,3.63,3,2.5,1.93,3.75,2.92c2.57,1.91,5.18,3.82,7.91,5.65,1.36.93,2.69,1.93,4.11,2.81s2.82,1.77,4.23,2.72,2.88,1.79,4.33,2.71,2.93,1.79,4.43,2.67l4.5,2.68,4.61,2.63c3.08,1.79,6.24,3.51,9.43,5.32s6.45,3.52,9.7,5.57l-.44,3a242.88,242.88,0,0,1-41.81-9.15,184.46,184.46,0,0,1-20-7.92,148.27,148.27,0,0,1-18.82-10.61,114.16,114.16,0,0,1-31-30.15A111.47,111.47,0,0,1,601,875.62a133.6,133.6,0,0,1-1.72-43.23,155.18,155.18,0,0,1,10.95-41.7,149.2,149.2,0,0,1,22-37,106.83,106.83,0,0,1,15.43-15.16,84.43,84.43,0,0,1,8.93-6.18,69.78,69.78,0,0,1,9.82-4.72Z"/><path class="cls-2" d="M594.2,791a54,54,0,0,0-10.14,11.37A76.18,76.18,0,0,0,577.27,815a122.47,122.47,0,0,0-7.91,27c-.22,1.13-.42,2.28-.59,3.43s-.34,2.29-.47,3.44c-.3,2.28-.6,4.56-.78,6.85-.33,4.58-.61,9.12-.53,13.62.06,2.26.09,4.49.21,6.71s.32,4.43.59,6.61A91.82,91.82,0,0,0,570,895.4c4,16.65,11.77,31,25.13,42.06a101.17,101.17,0,0,0,23.58,14.47c4.45,2.11,9.17,3.93,14.06,5.73l3.7,1.33,3.77,1.28c2.53,1,5.11,1.63,7.73,2.65l0,2a157.79,157.79,0,0,1-15.83-.31l-2-.13-2-.2-3.94-.44c-2.62-.4-5.25-.75-7.85-1.31a93.53,93.53,0,0,1-29.71-11.42,76.61,76.61,0,0,1-23.29-21.85A86.49,86.49,0,0,1,550.55,900a110.82,110.82,0,0,1-2.44-31.8A123.92,123.92,0,0,1,554.17,837a100.8,100.8,0,0,1,14.39-28.37,65.89,65.89,0,0,1,11-11.6,45.36,45.36,0,0,1,13.94-7.93Z"/><path class="cls-2" d="M520.52,877.34s-6.76,61.34,44.56,87c0,0-19.63,7.48-38.47-5-7.86-5.2-28-28.5-34.59,12.91C492,972.25,469.83,917,520.52,877.34Z"/><path class="cls-2" d="M616.59,1007.39a7.73,7.73,0,0,0-6.47,8.81l1.19,7.77c.65,4.28,2.58,25.86-23.94,30h0a7.73,7.73,0,0,1-8.83-6.44l-3.69-23.61c-1-6.25-5.69-10.74-10.48-10l-21.73,3.39c-4.79.75-7.92,6.47-6.94,12.71l20.15,129.12c1,6.24,5.69,10.74,10.48,10l21.74-3.39c4.79-.75,7.91-6.47,6.94-12.71l-9.28-59.45a7.72,7.72,0,0,1,6.44-8.82h0c43-6.71,53.41-42.86,50-65.52l-1.19-7.76a7.72,7.72,0,0,0-8.81-6.47Z"/></g></g></svg>
