<svg xmlns="http://www.w3.org/2000/svg" viewBox="0 0 1620.65 1620.65"><defs><style>.cls-1{fill:#c8213d;}.cls-2{fill:none;stroke:#fff;stroke-miterlimit:10;stroke-width:34px;}.cls-3{fill:#fff;}</style></defs><title>AVnom_blanc</title><g id="Calque_2" data-name="Calque 2"><g id="AV_BLANC" data-name="AV BLANC"><circle id="cercle" class="cls-1" cx="810.32" cy="810.32" r="810.32"/><path class="cls-2" d="M716.59,1153.14S458.65,1033.49,629.53,780.6c90.65-134.14,228.69-221.31,178.89-381.76,0,0,186.27,92.22,151.23,377.15,0,0,62.71,2.77,83-102.35,0,0,147.54,359.62-114.34,479.5C928.3,1153.14,811,1193.71,716.59,1153.14Z"/><path class="cls-3" d="M944.47,937.65,762.94,832.85a4.17,4.17,0,0,0-6.26,3.61v209.61a4.18,4.18,0,0,0,6.26,3.62L944.47,944.88A4.18,4.18,0,0,0,944.47,937.65Z"/></g></g></svg>
