<svg xmlns="http://www.w3.org/2000/svg" viewBox="0 0 1620.65 1620.65"><defs><style>.cls-1{fill:#1d1d1b;}.cls-2,.cls-4{fill:#fff;}.cls-2{stroke:#1d1d1b;stroke-width:27px;}.cls-2,.cls-3{stroke-miterlimit:10;}.cls-3{fill:none;stroke:#fff;stroke-width:37px;}</style></defs><title>prognom_blanc</title><g id="Calque_2" data-name="Calque 2"><g id="PROG_BLANC" data-name="PROG BLANC"><circle id="cercle" class="cls-1" cx="810.32" cy="810.32" r="810.32"/><path class="cls-2" d="M708.07,868.16"/><path class="cls-3" d="M708.07,867.16h-214a12,12,0,0,1-12-12v-407a12,12,0,0,1,12-12h672a12,12,0,0,1,12,12v407a12,12,0,0,1-12,12h-213"/><path class="cls-4" d="M630.49,642.66l62.81-62.81a15.54,15.54,0,0,0,0-21.92h0a15.54,15.54,0,0,0-21.92,0l-73.54,73.54a16.14,16.14,0,0,0,0,22.38l73.54,73.54a15.54,15.54,0,0,0,21.92,0h0a15.54,15.54,0,0,0,0-21.92Z"/><path class="cls-4" d="M1033.18,642l-62.81-62.81a15.54,15.54,0,0,1,0-21.92h0a15.54,15.54,0,0,1,21.92,0l73.54,73.54a16.14,16.14,0,0,1,0,22.38l-73.54,73.54a15.54,15.54,0,0,1-21.92,0h0a15.54,15.54,0,0,1,0-21.92Z"/><rect class="cls-4" x="822.9" y="493.84" width="24.77" height="283.9" rx="12.38" ry="12.38" transform="translate(429.8 -332.46) rotate(30)"/><path class="cls-4" d="M699.08,883.25c.68,0,1.44.07,2.11,0,3.22-.3-5.71-2.51-3.24-.74a18,18,0,0,0,4.85,2.18c-.34-.1,7.45,1.46,3.83.52-2.24-.59,2.29.83,3.2,1-.28-.06-2.84-1.51-1.1-.44,1,.64,2.19,1.15,3.24,1.75,1.3.74,2.52,1.56,3.78,2.37-3-1.92,0,.18,1.18,1.41.54.57,1,1.18,1.56,1.74-.23-.24-1.59-2.44-.53-.65s2.29,3.55,3.28,5.44c.36.71.68,1.45,1.06,2.14-.13-.23-1-2.82-.32-.79.63,1.77,1.29,3.52,1.85,5.32a102.79,102.79,0,0,1,2.63,11c.2,1,.36,2,.54,3,.06.35.45,2.94.12.62s.23,2.25.29,3c.36,3.89.55,7.82.66,11.73.09,3.38,0,6.77-.16,10.14-.1,1.55-.22,3.1-.39,4.65,0,.53-.53,3.75-.16,1.51.34-2.09-.23,1.15-.3,1.51a64.9,64.9,0,0,1-2.52,9.7c-.33,1-.69,1.93-1,2.89-.08.21-1,2.56-.29.79s-.26.55-.35.74c-.44.92-.88,1.84-1.34,2.75a95.18,95.18,0,0,1-5.47,9.17c-1.78,2.69,1.09-1.09-1,1.38-1.36,1.62-2.77,3.21-4.25,4.72-5.48,5.59-11.72,10.32-17.75,15.27-11.52,9.44-22.3,21-29.16,34.33a133.88,133.88,0,0,0-13.52,43.22c-3.89,29,.54,70,30.31,84.24,8,3.85,16,6.48,24,10.43,7.24,3.58,15.59,8.14,21.33,12.69a67.32,67.32,0,0,1,8.75,8.38,26.49,26.49,0,0,1,2.55,3.28c.89,1.21,1.78,2.47,2.76,3.62.18.21,1.57,1.8.71.73a38.16,38.16,0,0,1,5.43,9.12c1.36,3.84,1.85,7.84,3.22,11.7,2.64,7.44,14.8,11.18,18.77,2.46,2-4.37,3.35-8,3-12.93a84.21,84.21,0,0,0-2-13.19A54.46,54.46,0,0,0,757,1173.46c-11.23-13-26.77-21.29-42.3-27.93-7.33-3.13-14.11-6-21-10.1a14.88,14.88,0,0,1-4.85-4.88c-.53-1-1.1-1.93-1.56-3,.15.34.56,1.41-.05-.23a60.76,60.76,0,0,1-1.93-6.33c-.88-3.38-1.52-6.79-2.07-10.23-.17-1-.76-5.51-.4-2.27-.22-2-.4-3.94-.52-5.92q-.3-5.19-.09-10.4c.07-1.73.19-3.47.34-5.2.07-.74.14-1.48.22-2.22.47-4.69-.44,1.93.1-.72,1.44-7.11,2.88-14,5.51-20.84.1-.24,1.1-2.5.28-.7-.88,2,.44-.88.65-1.33q1.11-2.34,2.32-4.64c1.75-3.28,3.68-6.47,5.62-9.63,1.68-2.75,3.52-5.38,5.41-8-2.28,3.15,1.37-1.58,1.9-2.18,1.31-1.5,2.66-3,4-4.37,5.58-5.65,11.89-10.49,17.92-15.65C752,995,765.6,961,764.68,927.61c-.51-18.43-3.94-39.37-14.65-54.84-6.75-9.75-15.48-17.39-26.81-21.32a44.09,44.09,0,0,0-14.88-2.38c-6.25.13-11.62,3.29-16.71,6.66-11.73,7.79-7.88,27.74,7.45,27.52Z"/><path class="cls-4" d="M738.9,918a18.88,18.88,0,0,0-3.62,6c-.66,2-.63,4.89-.82,6.15a16.59,16.59,0,0,1-1.94,5.31c-4,5.6-9.6,8.51-15.81,12-13.24,7.39-27.15,11.76-42,15.49-15.85,4-31.86,8-46.16,16.18a114.12,114.12,0,0,0-33.84,30.16,82.25,82.25,0,0,0-13,24.5c-1.39,4.36-2.71,9.71-2.52,14.27.29,6.76,3.48,12.09,7.51,17.22,6.12,7.78,17.82,2.36,20.45-5.4,2.81-8.3,2.82-13.48,5.24-21.25,1.48-4.77,5.86-11.93,9.76-16.94-.9,1.15,1.38-1.6,1.7-2,1.22-1.4,2.48-2.77,3.78-4.09q1.66-1.71,3.43-3.32c.59-.54,1.19-1.05,1.79-1.57.14-.13,1.9-1.53.84-.72a81.11,81.11,0,0,1,18-10.51c13.74-5.74,29.37-8.12,43.82-12.47,15.27-4.6,30.61-11.62,43.58-21,8-5.75,14.56-12.22,18.32-21.47,3.53-8.69,5.09-23.7-5.52-28.22-4.09-1.74-9.87-2.28-13.1,1.69Z"/><path class="cls-4" d="M658.72,1098.34l-.55.26c-3.62,1.71-5.67,6.16-5.71,10,0,2.8-1.65,5-3.09,7.51-1.92,3.32-3.83,7.58-5.29,9.37a213.53,213.53,0,0,0-13.6,18.75c-8.5,13-14.72,27.63-16.37,43.2-1.45,13.74,1.13,28.31,8.27,40.24,7,11.72,26.1,31.93,39.56,17.2,3.78-4.13,4.18-12.85-2-15.46-1.66-.7-3.18-1.81-4.93-2.29.37.1-4.34-.51-4.64-.61a16,16,0,0,1-5.6-3.56,31.16,31.16,0,0,1-7.37-12.45,53.57,53.57,0,0,1-.72-31.61c3.35-12.26,9.95-23.49,17.71-33.47,2-2.6,4.1-5.66,6.51-7.9,2.64-2.44,5-4,7.24-6.92,4.92-6.22,8-14,7.37-22-.35-4.66-3.29-10.25-8.47-11.12-3.17-.54-5.38-.5-8.33.9Z"/><path class="cls-4" d="M980.41,866.33c-2.52-6.51-5.34-10.25-12-12.88A72.09,72.09,0,0,0,957.86,850c-11.38-2.54-22.41-2.25-31.55,5.91-11,9.78-14.29,25.83-16,39.74-3,25,3.67,51.56,17.28,72.67a106,106,0,0,0,28.55,29.52c11.7,8.24,25.4,13.22,38.57,18.56,22.59,9.16,46.84,28.36,61.27,48.32,4.49,6.21,7.71,13,11.58,19.58a35.66,35.66,0,0,1,4.78,17c.18,6,.18,12.47-2.21,18.1-1.46,3.46-3.77,6.43-5.22,9.88a15.52,15.52,0,0,0-.94,9.66c.43,2.62,3.14,3.87,5.44,4.14,13.79,1.63,19.83-18.4,22.68-28.72,3.44-12.46,1.89-26-.27-38.58-2.41-14-11.74-26.68-20.58-37.39a191.79,191.79,0,0,0-29.64-28.45c-12-9.37-24.66-16.36-38.4-22.76-6.38-3-12.78-5.91-18.91-9.38-2.46-1.4-4.87-2.87-7.21-4.46-1.19-.81-2.37-1.64-3.5-2.52,2.72,2.1-1.81-1.62-2.26-2a114.76,114.76,0,0,1-11.7-12.55c-3-3.6,1.73,2.71-.88-1.19-.8-1.19-1.65-2.34-2.43-3.55-1.57-2.4-3-4.87-4.39-7.4q-1-1.9-2-3.84c-.21-.43-2.14-4.8-.67-1.29-1.11-2.65-2.08-5.36-2.94-8.1s-1.6-5.51-2.22-8.32c-.31-1.4-.59-2.8-.83-4.22s-.52-4.26-.23-1.28a108.74,108.74,0,0,1-.1-20c.39-4.59-.88,3.17.23-1.3.46-1.84.78-3.71,1.3-5.54.38-1.35.82-2.69,1.32-4-1.28,3.4.31-.36.72-1.11l-1.06,1.16q2.21-1.95-.44.24a16,16,0,0,1,2.27-1.23q-3.65,1.34-.74.41c-5,.71.55.07,1.35,0,2.31,0,4.58.22,6.88.29,5.56.18,12.64.25,17.51-2.59l3.32-2.57c3-3.83,3.42-4.43,1.36-1.77,2.73-3.53,5.18-8.12,3.38-12.77Z"/><path class="cls-4" d="M967.42,980.09c-1,7.26,6.1,11.1,11.48,14.57a91.72,91.72,0,0,0,18.08,8.76,104.49,104.49,0,0,0,40.69,6.09c14.43-.63,28.48-4.42,41.93-9.48,13.22-5,27.26-11,41.65-10.66,6.46.16,12.41,3,17.4,7,6.08,4.85,10.43,12.73,17.17,16.52,5.88,3.3,12.3-2.13,11-8.42-1.41-6.6-7.21-13-11.41-18.17a56,56,0,0,0-16.62-14.16c-14.88-7.88-32.33-7.35-47.94-2.11-14.4,4.84-27.91,11.65-42.88,14.74a126.66,126.66,0,0,1-40.13,1.9A91.07,91.07,0,0,1,987,981.35c-3.57-1.33-6.85-3.58-10.45-4.76-2.83-.92-8.59-.52-9.14,3.5Z"/><path class="cls-4" d="M953.65,996.78c7.1,4.6,11.2,11.69,13.29,18.82a105.33,105.33,0,0,1,2.7,12.79c-.36-2.21.09.81.14,1.35.1,1.19.18,2.39.23,3.58a82.89,82.89,0,0,1-.13,8.34c-1.27,19.59-11.65,36.16-25.26,49.89-14.42,14.53-29.8,28.09-37,47.83-7.71,21-2.27,46.12,12.53,62.6,16.2,18,45,26.19,67.06,14.82,8.75-4.51,5-20.09-5.18-19.13-9.2.86-17.72.7-25.9-2a34.61,34.61,0,0,1-17.72-13.4c-4.91-7.63-6.89-14.36-6.76-22.58.12-7.88,2.59-14.18,7.72-21.66a24.62,24.62,0,0,1,3.08-4c1.25-1.47,2.55-2.91,3.88-4.32,3.37-3.57,6.92-7,10.49-10.33,6.79-6.42,13.68-12.79,19.54-20.11A97.79,97.79,0,0,0,997.93,1035c-.86-22.6-12.2-46.53-33.77-56.18-5.13-2.29-11.19-1.49-14.24,3.73a10.58,10.58,0,0,0,3.73,14.24Z"/><path class="cls-4" d="M700,884.45a22.68,22.68,0,0,0,8,1.85,23.72,23.72,0,0,1,9.83,3.31,34.82,34.82,0,0,1,7.39,5.29c2.06,2,3.37,4.56,5.45,6.49a3.61,3.61,0,0,0,6.08-2.52c.08-6.76-6.47-12.42-11.57-16a35.08,35.08,0,0,0-9.55-5c-4.18-1.26-8.26-.21-12.43-1s-7.78,5.48-3.18,7.54Z"/><path class="cls-4" d="M696.61,861.85a55.85,55.85,0,0,0,10.82-1.66c5.34-1.23,3-9.89-2.27-8.23-3.18,1-6.36,1.85-9.47,3.08a3.5,3.5,0,0,0-2.48,3.8,3.45,3.45,0,0,0,3.4,3Z"/><path class="cls-4" d="M695.58,858.44c3.89,2.56,8.2.18,12.54,1.13,4.56,1,9.22,3.51,13.27,5.79a32.12,32.12,0,0,1,10.14,8.77c2.37,3.22,3.31,8,7.65,9a3.41,3.41,0,0,0,3.66-1.49c3.25-4.3-1-10.23-3.67-13.79A36,36,0,0,0,727,857.49c-10.18-5.42-20.27-9-31.38-4.15-2.18.95-1.65,4,0,5.1Z"/><path class="cls-4" d="M698.12,1000.66c1,8.08-1.73,16-.92,24.12A36.41,36.41,0,0,0,708,1047.23c5.42,5.07,12.06,8.69,18.73,11.82,8.28,3.89,16.59,7.82,25,11.43,7.14,3.07,14.45,5.86,21.3,9.57a72.61,72.61,0,0,1,8.13,5.06,27.51,27.51,0,0,1,4.83,5.37,14.93,14.93,0,0,1,.83,1.52c-.58-1.43-.61-1.41-.09,0,.09.42.91,4.37.73,2.84s0,2.51,0,2.95c-.13,1.51-.12,1.53,0,.08a16,16,0,0,1-.39,1.66,14.36,14.36,0,0,1-.51,1.61c.54-1.2.49-1.17-.14.09-1.36,1.7,1-.52-1.09,1.39s.2-.15-1.48,1.09a16.1,16.1,0,0,0-5,5.3c-2.74,4.86-.93,10.43,3.53,13.47,7.77,5.27,17.89-.25,23.08-6.57a36,36,0,0,0,7.92-21.64c.78-18-13.18-32.12-28-40-8.1-4.32-16.7-7.91-25.17-11.43-4.75-2-9.53-3.9-14.29-5.85l-7.14-2.92c-1.54-.63-1.75-.72-.64-.27-.9-.39-1.78-.79-2.66-1.21a57.18,57.18,0,0,1-8.83-5c.85.72.66.56-.56-.49s-2.53-2-3.81-3c1.83,1.86-.17-.66-.58-1.49-.89-1.76-1.11-6.74-1.23-10.06a53.54,53.54,0,0,0-2.14-14.73A10.31,10.31,0,0,0,707,990.58c-4.54.68-9.54,5-8.91,10.08Z"/></g></g></svg>
