<?xml version="1.0" encoding="utf-8"?>
<!-- Generator: Adobe Illustrator 23.0.0, SVG Export Plug-In . SVG Version: 6.00 Build 0)  -->
<svg version="1.1" id="Capa_1" xmlns="http://www.w3.org/2000/svg" xmlns:xlink="http://www.w3.org/1999/xlink" x="0px" y="0px"
	 viewBox="0 0 409.6 375.5" style="enable-background:new 0 0 409.6 375.5;" xml:space="preserve">
<style type="text/css">
	.st0{fill:#00CD30;}
	.st1{fill:#009A30;}
	.st2{fill:#3077A6;}
</style>
<path class="st0" d="M366.9,8.5H42.7C23.8,8.5,8.5,23.8,8.5,42.7v204.8h392.5V42.7C401.1,23.8,385.8,8.5,366.9,8.5z"/>
<g>
	<polygon class="st1" points="253.6,358.4 238.9,307.2 170.7,307.2 156,358.4 119.5,358.4 119.5,375.5 290.1,375.5 290.1,358.4 	"/>
	<path class="st1" d="M8.5,273.1c0,18.9,15.3,34.1,34.1,34.1h324.3c18.9,0,34.1-15.3,34.1-34.1v-25.6H8.5V273.1z"/>
</g>
<g>
	
		<rect x="142.7" y="128.2" transform="matrix(0.2751 -0.9614 0.9614 0.2751 17.026 295.9429)" class="st2" width="124.2" height="17.1"/>
	<path class="st2" d="M148.1,185.8l-51.2-42.7c-3.6-3-4.1-8.4-1.1-12c0.3-0.4,0.7-0.8,1.1-1.1l51.2-42.7l10.9,13.1l-43.3,36.1
		l43.3,36.1L148.1,185.8z"/>
	<path class="st2" d="M261.5,185.8l-10.9-13.1l43.3-36.1l-43.3-36.1l10.9-13.1l51.2,42.7c3.6,3,4.1,8.4,1.1,12
		c-0.3,0.4-0.7,0.8-1.1,1.1L261.5,185.8z"/>
</g>
<path d="M409.6,273.1V42.7c0-23.6-19.1-42.6-42.7-42.7H42.7C19.1,0,0,19.1,0,42.7v230.4c0,23.6,19.1,42.6,42.7,42.7h116.7
	l-12.2,42.7h-27.7v17.1h170.7v-17.1h-27.7l-12.2-42.7h116.7C390.5,315.7,409.6,296.6,409.6,273.1z M42.7,17.1h324.3
	c14.1,0,25.6,11.5,25.6,25.6v196.3H17.1V42.7C17.1,28.5,28.5,17.1,42.7,17.1z M244.7,358.4h-79.8l12.2-42.7h55.4L244.7,358.4z
	 M366.9,298.7H42.7c-14.1,0-25.6-11.5-25.6-25.6V256h375.5v17.1C392.5,287.2,381.1,298.7,366.9,298.7z"/>
<rect x="142.7" y="128.2" transform="matrix(0.2751 -0.9614 0.9614 0.2751 17.026 295.9429)" width="124.2" height="17.1"/>
<path d="M148.1,185.8l10.9-13.1l-43.3-36.1l43.3-36.1l-10.9-13.1L96.9,130c-3.6,3-4.1,8.4-1.1,12c0.3,0.4,0.7,0.8,1.1,1.1
	L148.1,185.8z"/>
<path d="M261.5,185.8l51.2-42.7c3.6-3,4.1-8.4,1.1-12c-0.3-0.4-0.7-0.8-1.1-1.1l-51.2-42.7l-10.9,13.1l43.3,36.1l-43.3,36.1
	L261.5,185.8z"/>
</svg>
