<svg xmlns="http://www.w3.org/2000/svg" viewBox="0 0 1620.65 1620.65"><defs><style>.cls-1{fill:#292e6a;}.cls-2{fill:#fff;}.cls-3,.cls-4,.cls-5{fill:none;stroke:#fff;stroke-linecap:round;stroke-miterlimit:10;}.cls-3{stroke-width:10px;}.cls-4,.cls-5{stroke-width:30px;}.cls-5{fill-rule:evenodd;}</style></defs><title>graphnom_blanc</title><g id="Calque_2" data-name="Calque 2"><g id="GRAPH_BLANC" data-name="GRAPH BLANC"><circle id="cercle" class="cls-1" cx="810.32" cy="810.32" r="810.32"/><path class="cls-2" d="M964,938.22c15.38,25.4,36.57,58.25,60.84,90l1.28,1.66,1.49,1.47c.27.27,26.9,27.53,25.27,62-1.09,23.13-15.13,45.83-41.72,67.48l-.16.14-.16.13c-.16.13-16.61,12.93-42.94,12.93-22.18,0-45.33-9.07-68.83-27a87.63,87.63,0,0,1-21.13-34.9c-8.47-27.53-.14-56.95,24.77-87.42,3-3.54,28.22-33.68,61.29-86.48m.45-59.49C918.65,960,879.7,1005.47,879.7,1005.47c-78.73,96,0,164.5,0,164.5,33.73,26,63.9,34,88.21,34,38.42,0,62.21-19.93,62.21-19.93,106.89-87,18.56-174.1,18.56-174.1-48-62.73-84.22-131.22-84.22-131.22Z"/><path class="cls-3" d="M983.5,1144.59s51.34-7.34,51.34-70"/><line class="cls-4" x1="611.06" y1="564.85" x2="853.06" y2="791.85"/><line class="cls-4" x1="671.32" y1="506.5" x2="932.97" y2="751.94"/><line class="cls-4" x1="934.7" y1="754.29" x2="956.25" y2="886.21"/><line class="cls-4" x1="816.93" y1="878.73" x2="950.04" y2="890.88"/><line class="cls-4" x1="553.32" y1="632.3" x2="814.98" y2="877.73"/><path class="cls-5" d="M481.92,561.06l33.53,29.57,109.41-124-33.52-29.57a42.1,42.1,0,0,0-59.24,3.7l-53.88,61.07A42.11,42.11,0,0,0,481.92,561.06Z"/></g></g></svg>
