<svg id="Calque_1" data-name="Calque 1" xmlns="http://www.w3.org/2000/svg" viewBox="0 0 368.44 175.5"><defs><style>.cls-1{fill:#4dbaaf;}.cls-2{fill:#c71531;}</style></defs><title>Plan de travail 1</title><path class="cls-1" d="M175.77,53.55v52c0,1.27-.12,1.4-1.36,1.44-7.3.23-14.6,0-21.91.06-1.57,0-3.14-.1-4.71-.06-.84,0-1.12-.38-1.15-1.1,0-.52,0-1,0-1.57q0-24.7,0-49.42c0-.55.17-1.33-.31-1.55s-.82.52-1.19.86Q132.76,65.47,120.4,76.78c-.91.84-1.28.83-2.34-.13L101.93,62l-9.54-8.64c-.23-.21-.46-.62-.79-.49s-.24.64-.24,1v51.79c0,1.47,0,1.47-1.47,1.47H65.13c-1.74,0-2-.23-2-2V85q0-34.93.06-69.86c0-4.35,0-8.71-.06-13.07,0-1.83.21-2.06,2-2q4.51.16,9,0A3.78,3.78,0,0,1,77.05,1.1q20.4,18.68,40.83,37.32c1.23,1.13,1.59,1.15,2.81,0L146,15.28q7.35-6.74,14.68-13.5A6.11,6.11,0,0,1,165.46,0c3,.23,6.09.13,9.13.11.88,0,1.19.34,1.18,1.14,0,.52,0,1,0,1.57V53.55Z"/><path class="cls-1" d="M278.11,52.55c-1.62,1.7-3.4,2.79-4.93,4.21-7,6.5-14,12.91-21.05,19.35-.21.2-.43.41-.65.6-1,.85-1.39.87-2.37,0L236.19,64.92c-3.71-3.38-7.44-6.72-11.12-10.13-.71-.65-1.84-.76-2.25-1.81-.11-.31-.4-.09-.46.16a3.38,3.38,0,0,0-.06.78l0,50.61c0,.36,0,.72,0,1.08-.06,1.13-.38,1.49-1.49,1.49-8.32,0-16.64-.06-25-.14-2.12,0-2.12-.1-2.12-2.21q0-49.42,0-98.86c0-1.51,0-3,0-4.52,0-.86.26-1.29,1.26-1.28,3.4,0,6.81,0,10.21-.07a3.7,3.7,0,0,1,2.75,1q20.34,18.6,40.7,37.18c1.48,1.35,1.82,1.34,3.28,0q20.16-18.49,40.33-37A4.21,4.21,0,0,1,295.48,0c3,.13,6.09.13,9.13,0,1.33,0,1.72.33,1.73,1.66,0,2.49-.06,5-.06,7.46V93c0,4,.05,8,.06,12,0,1.86-.3,2.16-2.17,2.16H280.1c-1.73,0-2-.27-2-2q0-25.26,0-50.51Z"/><path class="cls-1" d="M76.55,113.45H89.33c1.48,0,1.86.37,1.86,1.84,0,3.24,0,6.49,0,9.73,0,1.37-.21,1.59-1.6,1.59l-9.14,0c-1.4,0-1.64.24-1.64,1.67,0,2.94,0,5.89,0,8.84a15,15,0,0,1-.93,5.19,2.5,2.5,0,0,0,.67,2.94q7.56,7.44,15.12,14.89c.86.85.91,1.43,0,2.31q-5.62,5.64-11.26,11.26c-.81.81-1.7.73-2.69-.26q-4.93-4.93-9.84-9.89c-2-2-2-2-4,0a37.07,37.07,0,0,1-24.1,11.23c-7.84.67-15.39-.23-22.39-4C9.58,165.46,2.88,157.6.69,146.41-1.26,136.46,1,127.31,6.6,119a35.56,35.56,0,0,1,6.09-7c1-.83.94-1.13,0-2.07A29,29,0,0,1,4.53,96,28.19,28.19,0,0,1,26.28,61.92,27.84,27.84,0,0,1,59.85,85.69c1.34,10.93-2.68,19.81-11.4,26.55-2,1.55-2.5,1.33-.31,3.56,4.43,4.51,8.82,9.06,13.23,13.59.29.29.56.72,1.07.51s.31-.7.31-1.11q0-6.5,0-13c0-2.38,0-2.38,2.4-2.38H76.55ZM39.13,155.72c.43,0,.85,0,1.28-.08A19,19,0,0,0,53.64,149c.89-1,.88-1.38-.08-2.31L29.65,123.53c-.89-.86-1.21-.88-2.19-.13a24.38,24.38,0,0,0-4.69,4.72c-2.9,3.93-4.37,8.26-3.39,13.17C20.85,148.68,27.81,156,39.13,155.72ZM32,79.15A10.26,10.26,0,0,0,21.76,89.38,10.49,10.49,0,0,0,31.93,99.79,10.5,10.5,0,0,0,42.26,89.32,10.3,10.3,0,0,0,32,79.15Z"/><path class="cls-1" d="M353,53.28v51c0,.33,0,.66,0,1,0,1.19-.32,1.53-1.52,1.58s-2.62,0-3.92,0l-20.54-.07q-.58,0-1.17,0c-1.15,0-1.33-.22-1.35-1.41,0-1.47,0-2.94,0-4.42V9.14c0-2.49,0-5,0-7.46,0-1.4.13-1.54,1.47-1.55q8.55,0,17.09,0c2.82,0,5.64-.07,8.45-.09,1.23,0,1.47.23,1.47,1.39V53.28Z"/><path class="cls-2" d="M212.48,148.9V124.63c0-1.78.34-2.16,2.1-2.14,5.93.07,11.85.13,17.78,0,8.2-.17,15.35,5.76,17.41,14.17a20,20,0,0,1-3.91,18.1,2.36,2.36,0,0,0-.26,2.94c2.82,5.2,5.58,10.44,8.37,15.67.15.29.3.58.44.87.3.62.13.92-.58.92-4.13,0-8.25,0-12.38,0a2.09,2.09,0,0,1-1.86-1.39c-1.91-3.61-3.86-7.21-5.71-10.85a2.82,2.82,0,0,0-3-1.78c-1.43.11-2.88,0-4.32,0-1.14,0-1.47.3-1.47,1.44,0,3.57,0,7.14,0,10.71,0,1.61-.25,1.86-1.89,1.86h-8.84c-1.49,0-1.85-.33-1.85-1.84q0-6.15,0-12.28c0-4.06,0-8.12,0-12.18ZM225,141.79h0V148c0,.68.13,1.25,1,1.26,1.8,0,3.6.14,5.4.09a10.21,10.21,0,0,0,4.68-.89,7.77,7.77,0,0,0,3.6-8.09,6.9,6.9,0,0,0-6.93-6.1c-2.06,0-4.12,0-6.18,0-1.23,0-1.57.33-1.57,1.57Q225,138.8,225,141.79Z"/><path class="cls-2" d="M169.64,148.89V124.43c0-1.73.2-1.92,1.92-1.92,6.39,0,12.77-.05,19.16,0a18.79,18.79,0,0,1,18.64,18.67c.12,8-3.23,13.93-10.06,18a15.5,15.5,0,0,1-7.89,2c-2.33,0-4.65,0-7,0-1.32,0-1.52.23-1.55,1.56-.07,3.47-.08,6.94,0,10.41,0,1.78-.25,2-2,2-3.05,0-6.09,0-9.14,0-1.92,0-2.08-.15-2.08-2Zm13.17-7.12V148c0,.77.19,1.4,1.12,1.38,2.62-.06,5.23.18,7.84-.14a7.56,7.56,0,0,0,.12-14.95,72.07,72.07,0,0,0-7.35-.16c-1.41-.05-1.73.3-1.73,1.7Z"/><path class="cls-2" d="M273.5,175.21H259.65c-1.64,0-1.93-.29-1.93-2q0-19.8,0-39.59c0-3,0-6,0-8.94,0-1.86.37-2.24,2.23-2.24h27.31c1.8,0,2.12.35,2.11,2.11,0,2.56,0,5.11,0,7.66,0,1.34-.33,1.74-1.66,1.74q-7,0-14.05-.07c-.26,0-.52,0-.78,0-1.47,0-1.88.46-1.76,1.93a28.38,28.38,0,0,1,0,4.61c-.12,1.58.36,2.08,1.95,2.07,4.13,0,8.26,0,12.38,0,1.49,0,1.76.3,1.76,1.8,0,2.78,0,5.56,0,8.34,0,1.23-.33,1.6-1.57,1.6q-6.22,0-12.47,0c-1.7,0-2.14.35-2,2a42.15,42.15,0,0,1,0,5.39c-.12,1.78.31,2.2,2.12,2.19l14.05,0c1.77,0,2.12.38,2.1,2.13,0,2.55,0,5.11,0,7.66,0,1.36-.24,1.62-1.6,1.63Z"/><path class="cls-2" d="M140,122.42a4.24,4.24,0,0,1,4.64,2.6c1,2.08,1.81,4.21,2.71,6.31q8.94,20.92,17.9,41.85c.84,2,.69,2.09-1.48,2-2.88-.06-5.76,0-8.64,0-1.34,0-1.85-.25-2.34-1.46s-1.07-2.53-1.59-3.8c-.61-1.47-.91-1.67-2.5-1.67l-13.46.05c-1,0-2,0-2.94-.05a1.87,1.87,0,0,0-1.94,1.34c-.56,1.47-1.21,2.9-1.77,4.36a1.77,1.77,0,0,1-1.89,1.24c-3.18-.1-6.35-.09-9.53,0-1.47.05-1.68-.31-1.09-1.69q10.41-24.57,20.82-49.14A3,3,0,0,1,140,122.42Zm.73,22.67c-1.54,3.68-3,7.11-4.41,10.54-.29.7,0,1,.67,1h7.46c.77,0,1-.36.68-1.08C143.66,152.15,142.24,148.75,140.7,145.09Z"/><path class="cls-2" d="M321.56,138.64c-1.57,0-3.14-.06-4.71,0a2,2,0,0,1-2.17-1.37,4.1,4.1,0,0,0-5.16-2.42,4,4,0,0,0-2.84,4.1,3.83,3.83,0,0,0,3.68,3.56,28.27,28.27,0,0,1,6,1c6.21,1.89,12.48,8.26,11.67,16.79-.6,6.27-4,10.68-9.68,13.3-8,3.7-17.73,1-22.34-6.2a14.88,14.88,0,0,1-2.42-7.27c-.06-1.06.17-1.3,1.21-1.3,3.18,0,6.36,0,9.53,0a2.85,2.85,0,0,1,2.92,1.87,3.59,3.59,0,0,0,4.38,2.05,4,4,0,0,0,3.39-3.79,4,4,0,0,0-3.24-3.81c-1.63-.32-3.32-.22-5-.57a16.31,16.31,0,0,1-13.19-17c.3-6.19,4.62-11.71,10.95-14,8.69-3.15,18.43.69,22.15,8.74A15.11,15.11,0,0,1,328,137c.13,1.3-.14,1.6-1.43,1.6h-5Z"/><path class="cls-2" d="M351.28,164.44a5.53,5.53,0,0,1,0,11.06,5.53,5.53,0,1,1,0-11.06Z"/><path class="cls-2" d="M345.06,152.27c0-2,0-4,0-6,0-1.46.21-1.66,1.64-1.65s3.14,0,4.71,0a6.19,6.19,0,1,0-6.08-7.75c-.36,1.31-.76,1.64-2.08,1.59-2.46-.08-4.91-.12-7.36,0-1.32.08-1.83-.42-1.76-1.74a16.37,16.37,0,0,1,7.22-12.8c10.6-7.63,25.69-.73,27,12.31A17,17,0,0,1,358,153.74a2.69,2.69,0,0,0-1.9,2.86,18.51,18.51,0,0,1,0,2,1.27,1.27,0,0,1-1.34,1.38c-2.88,0-5.76.05-8.65,0-.92,0-1.09-.69-1.1-1.43,0-2.1,0-4.19,0-6.29Z"/></svg>