<svg xmlns="http://www.w3.org/2000/svg" xmlns:xlink="http://www.w3.org/1999/xlink" viewBox="0 0 432.9 139.82"><defs><style>.cls-1{fill:url(#Bleu_2);}.cls-2{fill:url(#Bleu_2-2);}.cls-3{fill:url(#Bleu_2-3);}.cls-4{fill:url(#Bleu_2-4);}</style><linearGradient id="Bleu_2" y1="69.91" x2="210.03" y2="69.91" gradientUnits="userSpaceOnUse"><stop offset="0" stop-color="#47c1f0"/><stop offset="0.5" stop-color="#00a0e4"/><stop offset="1" stop-color="#008cd3"/></linearGradient><linearGradient id="Bleu_2-2" x1="125.46" y1="67.49" x2="184.35" y2="67.49" xlink:href="#Bleu_2"/><linearGradient id="Bleu_2-3" x1="125.46" y1="127.4" x2="210.03" y2="127.4" xlink:href="#Bleu_2"/><linearGradient id="Bleu_2-4" x1="198.07" y1="69.91" x2="432.9" y2="69.91" xlink:href="#Bleu_2"/></defs><title>Fichier 3</title><g id="Calque_2" data-name="Calque 2"><g id="Calque_1-2" data-name="Calque 1"><path class="cls-1" d="M105,139.82A10,10,0,0,1,97.18,136l-62-78.2A8.5,8.5,0,0,0,20,63.12v66.31a10.26,10.26,0,0,1-9.38,10.37A10,10,0,0,1,0,129.82V10.35A10.32,10.32,0,0,1,5.23,1.21,10,10,0,0,1,17.84,3.79l62,78.2A8.5,8.5,0,0,0,95,76.7V10.05A10.05,10.05,0,0,1,105.07,0h94.57A10.26,10.26,0,0,1,210,9.38,10,10,0,0,1,200,20H123.52a8.5,8.5,0,0,0-8.5,8.5v101a10.21,10.21,0,0,1-4.41,8.57A10.1,10.1,0,0,1,105,139.82Z"/><path class="cls-2" d="M174.35,77.49h-38.9a10,10,0,0,1,0-20h38.9a10,10,0,1,1,0,20Z"/><path class="cls-3" d="M200,137.4H135.46a10,10,0,0,1,0-20H200a10,10,0,1,1,0,20Z"/><path class="cls-4" d="M422.23,0a10.23,10.23,0,0,0-9.33,10.32V76.7A8.5,8.5,0,0,1,397.73,82l-62-78.2a10,10,0,0,0-12.65-2.55,10.28,10.28,0,0,0-5.18,9.07v59.6a49.86,49.86,0,1,1-30.48-46A10,10,0,1,0,295.19,5.5a69.92,69.92,0,1,0,42.69,64.41c0-.06,0-.11,0-.16s0-.12,0-.18V63.11A8.5,8.5,0,0,1,353,57.83l62,78.2a10,10,0,0,0,12.76,2.5,10.24,10.24,0,0,0,5.08-9V10A10,10,0,0,0,422.23,0Z"/></g></g></svg>