<?xml version="1.0" encoding="utf-8"?>
<!-- Generator: Adobe Illustrator 23.0.1, SVG Export Plug-In . SVG Version: 6.00 Build 0)  -->
<svg version="1.1" id="Calque_1" xmlns="http://www.w3.org/2000/svg" xmlns:xlink="http://www.w3.org/1999/xlink" x="0px" y="0px"
	 viewBox="0 0 223.6 112.6" style="enable-background:new 0 0 223.6 112.6;" xml:space="preserve">
<path d="M61.3,49.7c1.6,1.3,4.2,1.8,6.3,1.8c3.7,0,9.3-1.3,10.3-6.2v-0.2c0.9,3.7,4.2,6.4,10.8,6.4c2.8,0,5.1-0.5,7.1-1.3l4,4l3-3
	L99.6,48c2.1-1.8,3.5-4,4.4-6.5l-0.7,3.8c-1.1,4.9,3.9,6.2,7.6,6.2h0.2c3.7,0,9.3-1.3,10.3-6.2l0.3-1.3l-0.4,1.9
	c-0.7,4.1,3.1,5.6,8.2,5.6c3.1,0,7.8-0.6,9.8-4c0.6,3.5,5.1,4,8.2,4c5.2,0,9.6-1.5,10.5-5.7c0.8-3.9-2.7-4.4-8-5.2
	c-4.1-0.6-4.4-0.8-4.1-2.2c0.2-0.9,1.7-1.9,4.2-1.9c1.5,0,4.3,0.3,4.1,2.8h4.5c0.1-0.8,0.1-1.4,0-2h5.9l-2.9,13.6h4.2l2.9-13.6h7.5
	l0.7-3.1h-19.3l-0.2,1.1c-1.8-1.6-5-1.8-6.6-1.8c-2.8,0-8.5,0.6-9.5,5.4c-0.8,3.8,1.8,4.4,6.8,5.1c4.6,0.6,5.2,1.1,4.9,2.4
	c-0.3,1.6-2.8,2.1-5,2.1c-1.5,0-4.1-0.4-4-2.6h-8.9c-0.8,2.2-3.5,2.6-5.1,2.6c-2.2,0-4.4-0.6-4.1-2.1c0.3-1.3,1.1-1.7,5.9-2.4
	c5.3-0.7,8.2-1.3,8.9-5.1c0.9-4.8-5.2-5.4-8-5.4c-2.6,0-8.9,0.4-10.2,5.7l-0.4,2.1h-0.1l1.6-7.2h-4.5l-2.1,9.5
	c-0.5,2.5-1.6,4.4-5.3,4.5c-3.8,0-4-1.9-3.4-4.5l2.1-9.5h-4.7l-0.8,3.7c0.4-5.5-2.5-10.1-11.1-10.1c-1,0-2,0.1-2.9,0.2l-1.4,3.9
	c1.1-0.4,2.3-0.6,3.6-0.6c5.3,0,7.6,3.4,6.6,8.4c-1.1,5-4.8,8.4-10.1,8.4s-7.6-3.4-6.6-8.4c0.5-2.2,1.5-4,2.9-5.5H76l-2.1,9.6
	c-0.5,2.6-1.6,4.5-5.4,4.5s-4.1-1.9-3.5-4.3l2.1-9.7h-4.5l-2.2,9.5c-0.5,2.6-1.6,4.5-5.4,4.5c-3.9,0-4.1-1.9-3.5-4.5l2.1-9.5h-4.5
	l-2.4,11.2c0,0.2-0.1,0.4-0.1,0.6h-4.1c-0.8,2.2-3.5,2.6-5.1,2.6c-2.2,0-4.4-0.6-4.1-2.1c0.3-1.3,1.1-1.7,5.9-2.4
	c5.3-0.7,8.2-1.3,8.9-5.1c0.9-4.8-5.2-5.4-8-5.4c-2.6,0-8.9,0.4-10.2,5.7L28.6,46c-0.7,4.1,3.1,5.6,8.2,5.6c3.1,0,7.8-0.6,9.8-4.1
	c0.6,3.2,4.6,4.1,7.7,4.1C56.4,51.5,59.2,51.1,61.3,49.7z M127.2,39.3c0.8-2.5,3.8-2.8,5.3-2.8c2.5,0,4.2,1,4.1,1.9
	c-0.3,1.4-0.7,1.6-5,2.2c-1.8,0.2-3.3,0.5-4.7,0.8C126.9,41.4,127.2,39.3,127.2,39.3z M34.4,39.3c0.8-2.5,3.8-2.8,5.3-2.8
	c2.5,0,4.2,1,4.1,1.9c-0.3,1.4-0.7,1.6-5,2.2c-1.8,0.2-3.3,0.5-4.7,0.8C34.1,41.4,34.4,39.3,34.4,39.3z M21.2,27.7
	C10.3,27.7,8.8,34.3,8,38L5.3,50.9H10l2.7-12.7c0.7-3.2,1.6-7,7.8-7s5.5,3.8,4.8,6.9l-2.7,12.7h4.7L30,37.9
	C30.8,34.3,32.1,27.7,21.2,27.7z M59.6,72.2c-0.4,0.6-1.4,1.6-2.7,2.8c-2.1,1.8-4.1,2.8-4.9,2.5c-0.2-0.1-0.4-0.4-0.5-1.2
	c0-0.5,0-1,0.1-1.6c2.2-0.6,4-1.7,5.2-3c1.3-1.4,1.5-3.1,1-3.9c-0.5-0.7-2.4-2.1-3.6-2.1c-0.8,0-1.9,0.7-2.7,1.8
	c-1.1,1.5-2,3.6-2.2,5.7c-0.2,2.1,0.1,3.4,0.6,4.2c0.7,1,2.4,1.7,3.1,1.7c0.9,0,2.9-0.7,4.9-3.4c1.1-1.5,1.9-3.2,1.9-3.6
	C59.9,72.2,59.7,72.1,59.6,72.2z M53.5,69.9c0.8-1.2,1.8-2,2.3-2c0.4,0,0.2,0.8-0.2,1.8s-1.1,1.9-2.4,3c-0.5,0.4-0.9,0.7-1.3,0.9
	C52.3,72.2,52.8,70.9,53.5,69.9z"/>
<path d="M99.2,62.4c-0.5-0.2-1.4,0-1.7,0.2c-0.4,0.3-1.2,0.9-2.4,2.7c-0.8,1.2-1.5,2.1-2.8,4.2l0.5-1.5c0.6-1.8,1.2-3.2,1.1-3.7
	c0-0.3-0.3-0.6-0.7-0.9c-0.8-0.5-1.9-0.4-1.9-0.3c-0.2,0.5-0.4,1.5-1,3.7c-0.3,1.1-0.5,2.2-0.8,3.3c-0.5,0.6-1.2,1.3-2.1,2
	c-2.1,1.8-4.1,2.8-4.9,2.5c-0.2-0.1-0.4-0.4-0.5-1.2c0-0.5,0-1,0.1-1.6c2.2-0.6,4-1.7,5.2-3c1.3-1.4,1.5-3.1,1-3.9
	c-0.5-0.7-2.4-2.1-3.6-2.1c-0.8,0-1.9,0.7-2.7,1.8c-1.1,1.5-2,3.6-2.2,5.7c0,0.4-0.1,0.8-0.1,1.2c-0.3,0.2-0.7,0.5-1.1,0.8
	c-1,0.6-2,1-2.7,1.3c0.3-0.4,0.7-1.2,1.3-2.7c0.7-1.9,1.4-4.9,1.3-5.5c0-0.4-0.5-1.1-1.1-1.3c-0.5-0.2-1.3-0.3-1.6-0.3
	c-0.1,0-0.5,0.5-1.5,2.5c-0.8,1.5-2.6,4.9-4,7.7l1.4-4.2c0.6-1.8,1-3.1,0.9-3.7c0-0.5-0.3-0.8-0.7-0.9C71.3,64.9,70,65,70,65.1
	c-0.1,0.8-0.2,1.8-0.7,4c-0.2,1-0.4,1.9-0.6,2.8c-0.4,0.5-1,1.3-1.5,1.9C66,75.2,64.7,76,64.5,76c-0.3,0-0.8-1.5-1.1-3.5
	c0.3-0.5,0.7-1,1.1-1.5c1.5-1.9,3.2-3.8,4-4.6c0.5-0.5,0.4-0.9-0.1-1.3c-0.6-0.5-1.5-0.3-1.5-0.3c-1.1,1.4-2.3,3.2-3.7,5.3
	c0-1.3,0.2-2.8,0.2-3.4c0.1-0.5-0.5-1.1-1.3-1.3c-0.6-0.2-1.1-0.3-1.4-0.3c-0.2,0-0.3,0.9-0.3,2c0,1.3,0,2.7,0.3,4.7
	c0.1,0.5,0.2,1,0.3,1.4c-1,1.5-2,3-2.7,4.3c-0.2,0.3,1.3,1.6,1.5,1.2c0.3-0.8,1-2,1.8-3.4c0.2,0.4,0.3,0.8,0.5,1.1
	c0.4,0.9,2.2,1.4,2.8,1.3c0.7-0.1,2-1.4,2.8-2.7c0.3-0.4,0.5-0.8,0.7-1.2c-0.2,0.8-0.4,1.5-0.6,2c-1.4,4.9-2.1,7.7-2.1,7.8
	c0.2,0.4,0.5,0.6,0.8,0.8c0.5,0.3,1.3,0.3,1.5,0c0.3-0.6,1.2-4.7,2.1-7c1-2.4,1.6-3.6,2.9-5.9c1.2-2,2.1-3.9,2.5-4.3
	c0,0.3-0.2,2.2-0.9,4.2c-0.8,2.5-1.3,3.2-2,3.7c0,0.5,0.1,0.9,0.4,1.3c0.2,0.3,0.5,0.5,0.9,0.5c0.2,0,0.8-0.5,1.1-0.8
	c0.8-0.4,2.7-1.3,4.2-2.7c0.3-0.3,0.6-0.6,0.8-0.9c0.1,0.9,0.3,1.5,0.6,2c0.7,1,2.4,1.7,3.1,1.7c0.9,0,2.9-0.7,4.9-3.4l0.6-0.9
	c-0.2,0.8-0.3,1.5-0.4,1.9s0.1,0.6,0.3,0.8c0.5,0.3,1.5,0.8,1.7,0.4c0.4-0.9,0.8-3.5,1.8-4.8c1.5-2.1,2.9-3.8,3.4-4.3
	c-0.2,0.5-0.4,1.2-0.5,1.8c-0.1,0.5-0.2,1.3,0.1,1.6c0.5,0.5,1.9,0.6,1.9,0.6c0-0.7,0.2-1.4,0.7-2.8c0.8-2.2,1.9-3.5,1.8-4.2
	C100,63,99.7,62.7,99.2,62.4L99.2,62.4z M84.1,67.3c0.8-1.2,1.8-2,2.3-2c0.4,0,0.2,0.8-0.2,1.8s-1.1,1.9-2.4,3
	c-0.5,0.4-0.9,0.7-1.3,0.9C82.9,69.5,83.4,68.2,84.1,67.3z M103.4,59.7c0.3,0.1,1,0,1.6-0.5c0.6-0.4,1.5-1.8,1.4-2.6
	c-0.1-0.6-1-1.1-2-1.1c-0.6,0-1,0.2-1.1,0.5c-0.1,0.2-0.1,1.6,0,2.5C103.3,58.9,103.1,59.7,103.4,59.7z M148.1,64.5
	c-0.4,0.6-1.4,1.6-2.7,2.8c-2.1,1.8-4.1,2.8-4.9,2.5c-0.2-0.1-0.4-0.4-0.5-1.2c0-0.5,0-1,0.1-1.6c2.2-0.6,4-1.7,5.2-3
	c1.3-1.4,1.5-3.1,1-3.9c-0.5-0.7-2.4-2.1-3.6-2.1c-0.8,0-1.9,0.7-2.7,1.8c-1.1,1.5-2,3.6-2.2,5.7c-0.4,0.5-1.2,1.5-2.5,2.5
	c-1.3,1.1-3,2.1-4.1,2.2c-0.7,0.1-1.1-0.2-1.2-1.5c-0.2-1.9,0.8-4.5,2.4-6.4c0.7-0.8,1.3-1.4,1.8-1.4c0.4,0,0.3,0.9-0.2,1.9
	c-0.7,1.4-1.5,2.1-2,2.5c-0.3,0.3,0.1,0.6,0.7,0.6c1.1-0.1,2.8-1.3,3.4-2.4c0.5-0.9,0.6-1.9,0.1-2.7c-0.4-0.6-2.1-2.1-3.4-2
	c-0.8,0.1-1.9,0.4-3.1,2.3c-1.3,2-1.9,4.2-1.9,6c-0.3,0.4-0.7,0.9-1.1,1.5c-1.3,1.6-2.5,2.4-2.7,2.4c-0.1,0-0.3-0.3-0.4-0.8
	c-0.1-0.9,0-2.1,0.8-4.5c0.9-2.7,1.9-4.1,1.8-4.8c-0.1-0.6-0.4-0.9-1-1.1c-0.5-0.2-1.3-0.1-1.3-0.1c-0.2,0.1-1.1,1.6-2.3,3.3
	c-0.8,1.2-2.9,4.6-4.2,6.8l1.4-4.2c0.6-1.8,1.1-3,1.1-3.5c0-0.3-0.3-0.6-0.7-0.9c-0.8-0.5-1.9-0.4-1.9-0.3c-0.2,0.5-0.4,1.2-1,3.5
	c-0.2,0.9-0.4,1.8-0.6,2.6c-0.4,0.6-1.4,1.6-2.7,2.8c-2.1,1.8-4.1,2.8-4.9,2.5c-0.2-0.1-0.4-0.4-0.5-1.2c0-0.5,0-1,0.1-1.6
	c2.2-0.6,4-1.7,5.2-3c1.3-1.4,1.5-3.1,1-3.9c-0.5-0.7-2.4-2.1-3.6-2.1c-0.8,0-1.9,0.7-2.7,1.8c-1.1,1.5-2,3.6-2.2,5.7
	c0,0.3-0.1,0.6-0.1,0.9c-0.2,0.3-0.5,0.7-0.9,1.2c-1,1.3-2.3,2.5-2.8,2.5c-0.2,0-0.2-0.2-0.3-0.6c-0.1-1,0.4-2.8,1.1-4.7
	c0.8-2.2,1.3-3.2,1.5-4c0.2-0.8,0.1-1-0.6-1.5s-1.6-0.4-1.8-0.3c0,0-0.4,0.9-0.9,2.4c-0.6,1.9-1.8,5.4-1.6,7.6
	c0.1,1.3,0.9,1.8,1.3,2.1c0.5,0.3,1.5,0.6,1.7,0.6c0.6-0.1,1.4-0.6,2.8-3.1c0.1-0.2,0.3-0.5,0.4-0.8c0.1,0.9,0.3,1.5,0.6,1.9
	c0.7,1,2.4,1.7,3.1,1.7c0.9,0,2.9-0.7,4.9-3.4c0.6-0.7,1-1.5,1.3-2.2c-0.3,1.3-0.5,2.5-0.6,3.2c-0.1,0.4,0.1,0.6,0.3,0.8
	c0.5,0.3,1.5,0.8,1.7,0.4c0.4-0.9,1.6-2.7,3-4.9c1.1-1.7,1.9-2.9,2.2-3.3c-0.1,0.2-0.3,0.9-0.5,1.9c-0.3,1.5-0.4,2.3-0.4,3.3
	c0.1,1.3,0.8,1.8,1.5,2.2c0.5,0.3,1.3,0.5,1.7,0.5c0.6-0.1,1.5-0.5,2.8-2.8c0.2-0.4,0.5-1,0.7-1.5c0.1,0.9,0.4,1.5,0.8,2
	c1,1.1,2.5,1.5,3.4,1.5c1-0.1,2.8-0.9,4.3-3c0.6-0.8,1-1.5,1.3-2.2c0,1.4,0.3,2.4,0.7,3c0.7,1,2.4,1.7,3.1,1.7
	c0.9,0,2.9-0.7,4.9-3.4c1.1-1.5,1.9-3.2,1.9-3.6C148.3,64.4,148.1,64.4,148.1,64.5L148.1,64.5z M141.9,62.2c0.8-1.2,1.8-2,2.3-2
	c0.4,0,0.2,0.8-0.2,1.8s-1.1,1.9-2.4,3c-0.5,0.4-0.9,0.7-1.3,0.9C140.7,64.5,141.3,63.2,141.9,62.2L141.9,62.2z M109.6,65
	c0.8-1.2,1.8-2,2.3-2c0.4,0,0.2,0.8-0.2,1.8s-1.1,1.9-2.4,3c-0.5,0.4-0.9,0.7-1.3,0.9C108.4,67.3,109,66,109.6,65z M176.4,52.2
	c-0.4-0.1-1.1,0.1-1.7,1c-0.6,0.9-0.8,1.9-0.8,2.4c0,0.2,0.1,0.5,0.3,0.5s0.5-0.3,0.7-0.5c0.5-0.5,1.2-0.8,1.7-0.9
	c0.5-0.1,0.8,0,0.8-0.3C177.4,53.5,177.1,52.4,176.4,52.2z M175.8,68.4c-0.5,0-1.4,0.1-2.5,0.4v-0.1c-0.3-0.9-1.3-1.8-1.7-2
	c-0.4-0.2-1.4-0.2-2.1-0.1c0.7-0.7,1.1-1.2,2.4-2.4c1.4-1.3,2.4-1.8,2.5-2.2c0.1-0.3,0-1-0.5-1.5c-0.3-0.3-0.5-0.5-0.7-0.6
	c-0.5,0.4-0.9,0.8-1.5,1.2c-1.7,1.4-3.8,2.2-3.8,1.9c0-0.4,0.3-1.7,1.4-2.9c1.1-1.2,2.4-1.8,3.4-1.9c0.9-0.1,1.6-0.1,2.1,0
	c0.2,0,0.2-0.1,0.1-0.4c-0.1-0.5-1.1-1.7-1.5-1.8c-0.4-0.2-1-0.2-1.7-0.1c-0.7,0.1-2.4,0.5-3.8,1.8c-1.8,1.7-2.3,3.4-2.2,4.8
	c0,0.3,0.2,0.6,0.5,0.9c-0.2,0.4-0.7,1.1-1.5,2.1c-1.3,1.6-2.4,2.4-2.6,2.4c-0.2,0-0.3-0.5-0.2-1.4c0.1-1.1,0.8-2.9,1.5-4.9
	c0.7-1.8,1-2.5,1-3s-0.5-1-1.1-1.2s-1.3-0.2-1.3-0.1l-0.3,1.1c-0.8-0.7-1.9-1.4-2.7-1.3c-0.8,0.1-2.1,0.7-3.1,2.3
	c-1.2,2-1.8,4-2,5.8c-0.1,1.4-0.1,3.1,0.5,3.8c0.5,0.7,1.6,1.2,2.5,1.1c0.5,0,1.9-3.2,2.7-5c0,0.2-0.1,0.8-0.1,1.5
	c0,0.7,0.3,1.6,0.9,2c0.6,0.4,1.6,1,2.3,0.9c1-0.1,2.3-2.2,2.8-3.1c0.5-1,0.9-2,1-2.6c0.4,0.4,0.8,0.7,1,0.7
	c0.3,0.1,0.7,0.1,1.1-0.1c-1.3,1.2-2.4,2.9-2.4,3.1c0,0.3,0.1,0.8,0.4,1.2c0.3,0.4,0.5,0.5,0.8,0.5c0.4,0,3.5-2,4.1-0.8
	c0.1,0.2,0.1,0.6,0.2,1c-1.7,0.5-3.7,1.3-5.7,2.6c-3.5,2.3-4.9,5-4.8,6.3c0.1,1.1,2.5,3.2,4.4,3c1.2-0.1,4.3-1.5,6.3-5.1
	c1.3-2.5,1.8-4.8,1.5-6.4c0.8-0.2,1.6-0.4,2.2-0.5C176,69.1,176,68.4,175.8,68.4L175.8,68.4z M160.9,60.5c-1.2,3.2-4.3,7.7-4.6,7.7
	c-0.2,0-0.3-0.3-0.2-1.3c0.1-1.5,0.7-3.7,1.6-5.3c0.9-1.5,1.7-2.5,2.7-2.5c0.2,0,0.5,0,1,0.2C161.4,59.3,160.9,60.5,160.9,60.5z
	 M170.2,73.9c-2.3,4-6.6,5.3-6.6,4.5c0-0.4,0.5-2.6,4.3-5.9c1.1-1,2.4-1.7,3.7-2.2C171.4,71.3,170.9,72.7,170.2,73.9z"/>
<path d="M214.3,65c0.7-1.8,2-6,2.6-8.2c0.4-1.7,0.6-2.5,0.6-2.9c0-0.5-0.1-1-0.5-1.4c-0.5-0.4-1.5-0.5-2-0.4c0,0-0.4,2.6-1.5,4.7
	c-1.5,3-3.7,5.7-4.5,6c0.3-0.7,0.6-1.3,1.4-3.6c0.7-1.9,1.2-3.8,1-4.6s-1.6-1.4-2.7-1c0,0.5,0,1-0.4,2.9c-0.3,1.1-0.5,2.2-0.8,3.1
	c-0.4,0.5-1.2,1.5-2.5,2.5c-1.3,1.1-3,2.1-4.1,2.2c-0.7,0.1-1.1-0.2-1.2-1.5c-0.2-1.9,0.8-4.5,2.4-6.4c0.7-0.8,1.3-1.4,1.8-1.4
	c0.4,0,0.3,0.9-0.2,1.9c-0.7,1.4-1.5,2.1-2,2.5c-0.3,0.3,0.1,0.6,0.7,0.6c1.1-0.1,2.8-1.3,3.4-2.4c0.5-0.9,0.6-1.9,0.1-2.7
	c-0.4-0.6-2.1-2.1-3.4-2c-0.8,0.1-1.9,0.4-3.1,2.3c-1.3,2-1.9,4.2-1.9,6c-0.3,0.4-0.7,0.9-1.1,1.5c-1.3,1.6-2.5,2.4-2.7,2.4
	c-0.1,0-0.3-0.3-0.4-0.8c-0.1-0.9,0-2.1,0.8-4.5c0.9-2.7,1.9-4.1,1.8-4.8c-0.1-0.6-0.4-0.9-1-1.1c-0.5-0.2-1.3-0.1-1.3-0.1
	c-0.2,0.1-1.1,1.6-2.3,3.3c-0.8,1.2-2.9,4.6-4.2,6.8l1.4-4.2c0.6-1.8,1.1-3,1.1-3.5c0-0.3-0.3-0.6-0.7-0.9c-0.8-0.5-1.9-0.4-1.9-0.3
	c-0.2,0.5-0.4,1.2-1,3.5c-0.2,0.9-0.4,1.8-0.6,2.6c-0.4,0.6-1.4,1.6-2.7,2.8c-2.1,1.8-4.1,2.8-4.9,2.5c-0.2-0.1-0.4-0.4-0.5-1.2
	c0-0.5,0-1,0.1-1.6c2.2-0.6,4-1.7,5.2-3c1.3-1.4,1.5-3.1,1-3.9c-0.5-0.7-2.4-2.1-3.6-2.1c-0.8,0-1.9,0.7-2.7,1.8
	c-1.1,1.5-2,3.6-2.2,5.7c-0.2,2.1,0.1,3.4,0.6,4.2c0.7,1,2.4,1.7,3.1,1.7c0.9,0,2.9-0.7,4.9-3.4c0.6-0.7,1-1.5,1.3-2.2
	c-0.3,1.3-0.5,2.5-0.6,3.2c-0.1,0.4,0.1,0.6,0.3,0.8c0.5,0.3,1.5,0.8,1.7,0.4c0.4-0.9,1.6-2.7,3-4.9c1.1-1.7,1.9-2.9,2.2-3.3
	c-0.1,0.2-0.3,0.9-0.5,1.9c-0.3,1.5-0.4,2.3-0.4,3.3c0.1,1.3,0.8,1.8,1.5,2.2c0.5,0.3,1.3,0.5,1.7,0.5c0.6-0.1,1.5-0.5,2.8-2.8
	c0.2-0.4,0.5-1,0.7-1.5c0.1,0.9,0.4,1.5,0.8,2c1,1.1,2.5,1.5,3.4,1.5c1-0.1,2.8-0.9,4.3-3c0.3-0.4,0.6-0.9,0.8-1.3
	c-0.3,1.1-0.6,1.8-0.6,1.9c0,0.1,0,0.6,0.4,1c0.6,0.6,1.4,0.9,1.8,0.8c0.4-0.1,1.7-1.5,2.8-3.1c0.7-1,1.6-2.5,2.6-4.4
	c-0.7,2.8-1.6,5.6-2.5,7.8c-2.4,0.9-5.7,3.2-7.3,5c-1.5,1.7-2.1,3.1-1.9,3.9c0.1,0.7,2.4,2.9,3.7,2.8c1.7-0.1,4-2.8,5.1-5
	c1.4-2.8,2.1-4.8,2.6-6.2c0.9-0.3,2,0,2.6,0.3c0.4,0.2,1.8-0.5,1.8-0.8C218.3,65.1,215.9,64.7,214.3,65L214.3,65z M179.4,58.9
	c0.8-1.2,1.8-2,2.3-2c0.4,0,0.2,0.8-0.2,1.8s-1.1,1.9-2.4,3c-0.5,0.4-0.9,0.7-1.3,0.9C178.2,61.2,178.8,59.9,179.4,58.9L179.4,58.9z
	 M204.9,74.8c-0.2,0,0-0.9,0.2-1.3c1.8-3.5,4.3-5.6,6-6.5C209,72.1,206.4,74.7,204.9,74.8z"/>
</svg>
