<?xml version="1.0" encoding="utf-8"?>
<!DOCTYPE svg PUBLIC "-//W3C//DTD SVG 1.1//EN" "http://www.w3.org/Graphics/SVG/1.1/DTD/svg11.dtd">
<svg version="1.1" xmlns="http://www.w3.org/2000/svg" xmlns:xlink="http://www.w3.org/1999/xlink" x="0px" y="0px" viewBox="-418 271 123 20" enable-background="new -418 271 123 20" xml:space="preserve">
	<path fill="#131b34" d="M-297,290.2l-2.3-12.3h0l-5.7,13.1l-5.7-13.1h0l-2.3,12.3h-2l3.6-19.2l6.5,15.3l6.5-15.3l3.6,19.2H-297z M-330.3,290.7c-5.2,0-9.4-4.3-9.4-9.6c0-5.3,4.2-9.6,9.4-9.6s9.4,4.3,9.4,9.6C-320.9,286.4-325.1,290.7-330.3,290.7z M-323,281.1 c0-4.1-3.3-7.5-7.3-7.5c-4,0-7.3,3.3-7.3,7.5c0,4.1,3.3,7.5,7.3,7.5C-326.3,288.6-323,285.3-323,281.1z M-351.8,290.6 c-5,0-9.3-4.2-9.3-9.3c0-5.2,4.2-9.5,9.3-9.5c2,0,3.7,0.6,5.3,1.8v2.5c-1.4-1.5-3.4-2.4-5.4-2.4c-4,0-7.2,3.5-7.2,7.5 c0,4,3.2,7.5,7.2,7.5c2,0,4-1,5.4-2.4v2.5C-348,289.9-349.9,290.6-351.8,290.6z M-377.3,272h9.2v1.9h-7.2v7.5h6v1.9h-6v5h7.2v1.9 h-9.2V272z M-395.8,272h9.2v1.9h-7.2v7.5h6v1.9h-6v5h7.2v1.9h-9.2V272z M-405.3,288.4v1.9H-418l9.7-16.3h-7.4V272h10.7l-9.7,16.3 H-405.3z"/>
</svg>